# xmcd
#
# Track frame offsets:
#	150
#	29281
#	47222
#	68492
#	92792
#	115522
#	134615
#	158080
#	176724
#	196444
#	217143
#	239368
#	256093
#	281090
#	296171
#	319179
#	337503
#
# Disc length: 4747 seconds
#
# Revision: 0
# Processed by: cddbd v1.5.2PL0 Copyright (c) Steve Scherf et al.
# Submitted via: EasyCDDAExtractor 11.0.3.1
#
DISCID=fc128911
DTITLE=Various Artist - Strictly Steppin' Vol 3
DYEAR=2007
DGENRE=R&B
TTITLE0=Mighty Bop - Lady
TTITLE1=Enchnatment - Don't Fight The Feeling
TTITLE2=Bill Withers - Let Me Be The One
TTITLE3=Seal - Touch
TTITLE4=Steve Butler and Ron Hayes - Change
TTITLE5=Donnie Williams - Invisible Man
TTITLE6=Frank McComb - Label As Love
TTITLE7=Baby Face - Just My Imagination
TTITLE8=Stephen Marley - Fed Up
TTITLE9=The Four Tops - One Woman's Man
TTITLE10=Will Downing - After Tonight
TTITLE11=Common - Break My Heart
TTITLE12=Curiosity Killed The Cat - Red Light
TTITLE13=50 Cent - Follow My Lead
TTITLE14=Phyllis Hyman - As You Are
TTITLE15=Chrisette Michele - If I Have My Way
TTITLE16=Freddie Jackson - Transition
EXTD=
EXTT0=
EXTT1=
EXTT2=
EXTT3=
EXTT4=
EXTT5=
EXTT6=
EXTT7=
EXTT8=
EXTT9=
EXTT10=
EXTT11=
EXTT12=
EXTT13=
EXTT14=
EXTT15=
EXTT16=
PLAYORDER=
